<svg width="738" height="680" viewBox="0 0 738 680" fill="none" xmlns="http://www.w3.org/2000/svg">
<path d="M419 50C419 22.3858 396.614 1.20706e-06 369 0C341.386 -1.20706e-06 319 22.3858 319 50L419 50ZM333.645 665.355C353.171 684.882 384.829 684.882 404.355 665.355L722.553 347.157C742.08 327.631 742.08 295.973 722.553 276.447C703.027 256.92 671.369 256.92 651.843 276.447L369 559.289L86.1573 276.447C66.6311 256.92 34.9728 256.92 15.4466 276.447C-4.07962 295.973 -4.07962 327.631 15.4466 347.157L333.645 665.355ZM319 50L319 630L419 630L419 50L319 50Z" fill="white"/>
</svg>
