<svg width="371" height="295" viewBox="0 0 371 295" fill="none" xmlns="http://www.w3.org/2000/svg">
<path d="M15.7802 135.19L29.7002 149.87L15.6802 164.66H72.6102V162.61H20.8702L33.6002 149.88L20.9602 137.24H72.1502V135.19H15.7802Z" fill="#092442"/>
<path d="M349.9 135.19L335.98 149.87L350 164.66H293.53V162.61H344.81L332.08 149.88L344.72 137.24H293.53V135.19H349.9Z" fill="#092442"/>
<path d="M97.73 97.94L183.5 146.5L267.55 97.96L182.73 50.1L97.73 97.94Z" fill="#092442" stroke="#092442" stroke-miterlimit="10"/>
<path d="M187.3 163.43C186.79 162.9 186.21 162.66 185.55 162.71C184.89 162.76 184.2 162.99 183.49 163.39L182.5 163.95V164.18L176.17 160.57L176.19 183.47L182.5 187.11V186.71L184.1 185.81C185.52 185.01 186.69 183.45 187.61 181.11C188.53 178.78 188.98 175.57 188.98 171.48C188.98 169.21 188.83 167.43 188.52 166.15C188.21 164.87 187.81 163.96 187.3 163.43Z" fill="#092442"/>
<path d="M186.79 225C187.5 224.19 188.13 223.16 188.67 221.9C189.21 220.64 189.64 219.1 189.97 217.29C190.29 215.47 190.45 213.29 190.45 210.75C190.45 205.75 189.92 202.48 188.87 200.93C187.82 199.38 186.43 199.09 184.7 200.06L182.49 201.3V201.71L176.2 198.05L176.23 224.57L182.5 228.28V228.03L184.56 226.88C185.34 226.44 186.09 225.82 186.8 225.01L186.79 225Z" fill="#092442"/>
<path d="M260.01 169.15V103.79L244.74 112.39L259.91 169.2L260.01 169.15Z" fill="#092442"/>
<path d="M244.38 144.76L244.28 144.82V210.04L236.8 214.23V116.86L231 120.13V138.08L211.82 148.85V169.72L229.42 159.84V176.48L211.82 186.35V210.22L231.41 199.24V217.25L203.84 232.7V135.43L186.66 145.11C187.8 144.64 188.87 144.4 189.86 144.41C191.28 144.43 192.5 145.09 193.52 146.38C194.54 147.67 195.33 149.71 195.88 152.48C196.44 155.26 196.72 158.92 196.72 163.46C196.72 168.37 196.3 172.69 195.47 176.43C194.64 180.17 193.41 183.54 191.78 186.54C194.02 187.01 195.69 189.1 196.79 192.8C197.89 196.5 198.44 201.4 198.44 207.49C198.44 212.4 198.08 216.85 197.37 220.84C196.66 224.83 195.7 228.3 194.5 231.25C193.3 234.2 191.92 236.65 190.38 238.6C188.84 240.56 187.25 241.99 185.63 242.9L182.56 244.62L182.74 244.72L267.51 197.01L259.51 201.49L244.39 144.74L244.38 144.76Z" fill="#092442"/>
<path d="M267.46 99.5901L267.5 99.5701L267.46 99.5901Z" fill="#092442"/>
<path d="M120.7 209.11L110.1 159.17L106.03 168.83L106.18 201.04L128.68 213.88L120.7 209.11Z" fill="#092442"/>
<path d="M105.19 103.75L105.7 143.72L118.45 111.22L127.84 116.51L114.92 147.17L129.98 214.62L145.21 223.31C141.57 220.59 138.74 216.68 136.55 210.12C133.98 202.41 132.64 192.06 132.53 179.03L132.03 118.86L139.62 123.14L140.05 183.43C140.07 186.03 140.17 188.63 140.34 191.22C140.52 193.82 140.87 196.22 141.39 198.44C141.91 200.66 142.64 202.64 143.55 204.38C144.47 206.12 145.7 207.45 147.23 208.36C149.92 209.95 151.78 209.38 152.79 206.64C153.8 203.89 154.3 198.93 154.26 191.74L153.97 131.24L161.68 135.58L161.89 196.2C161.94 209.24 160.66 218.11 158.07 222.85C156.01 226.62 153.22 227.25 149.85 225.96L178.82 242.5L168.57 236.38L168.34 139.33L182.48 147.3L182.6 147.23L97.77 99.5601L105.18 103.74L105.19 103.75Z" fill="#092442"/>
<path d="M279.06 92.9801L182.74 36.8L86.2202 92.9801L86.2802 93.0101L87.8302 203.63L182.74 257.81L278.99 203.63V93.02L279.05 92.99L279.06 92.9801Z" stroke="#092442" stroke-linecap="round" stroke-linejoin="round"/>
<path d="M286.86 88.59L182.75 27.87L78.4199 88.59L78.4899 88.63L80.1699 208.2L182.75 266.76L286.79 208.2V88.63L286.86 88.59Z" stroke="#092442" stroke-width="3" stroke-linecap="round" stroke-linejoin="round"/>
<path d="M293.52 84.84L182.76 20.24L71.7598 84.84L71.8298 84.88L73.6198 212.09L182.76 274.39L293.45 212.09V84.88L293.52 84.84Z" stroke="#092442" stroke-linecap="round" stroke-linejoin="round"/>
<path d="M60.7503 149.07C60.7203 148.85 60.6803 148.63 60.6303 148.42C60.5803 148.21 60.5003 148.01 60.3903 147.84C60.2803 147.67 60.1503 147.53 59.9903 147.43C59.8303 147.32 59.6303 147.27 59.3903 147.27C59.1503 147.27 58.9603 147.32 58.8003 147.43C58.6403 147.53 58.5103 147.67 58.4103 147.84C58.3103 148.01 58.2303 148.2 58.1703 148.42C58.1103 148.63 58.0703 148.85 58.0503 149.07C58.0303 149.29 58.0103 149.5 58.0103 149.71C58.0103 149.92 58.0103 150.09 58.0103 150.24C58.0103 150.48 58.0103 150.78 58.0303 151.12C58.0503 151.47 58.1003 151.8 58.1803 152.12C58.2703 152.44 58.4003 152.71 58.5903 152.94C58.7803 153.17 59.0403 153.28 59.3903 153.28C59.7403 153.28 60.0203 153.17 60.2103 152.94C60.4003 152.71 60.5403 152.44 60.6203 152.12C60.7003 151.8 60.7603 151.47 60.7703 151.12C60.7903 150.78 60.7903 150.48 60.7903 150.24C60.7903 150.09 60.7903 149.92 60.7903 149.71C60.7903 149.5 60.7703 149.29 60.7403 149.07H60.7503Z" fill="#092442"/>
<path d="M24.6601 138.61L36.3901 149.89L24.5801 161.25L73.0001 161L72.1501 138.61H24.6601ZM50.9101 154.53H44.6601C44.6601 154.03 44.7301 153.61 44.8701 153.24C45.0101 152.88 45.2001 152.55 45.4501 152.26C45.6901 151.97 45.9801 151.71 46.3101 151.46C46.6401 151.21 46.9901 150.97 47.3501 150.72C47.5401 150.59 47.7301 150.46 47.9501 150.32C48.1601 150.19 48.3501 150.04 48.5301 149.88C48.7001 149.72 48.8501 149.54 48.9701 149.33C49.0901 149.13 49.1501 148.9 49.1501 148.64C49.1501 148.23 49.0301 147.9 48.7901 147.67C48.5501 147.44 48.2401 147.32 47.8701 147.32C47.6201 147.32 47.4101 147.38 47.2301 147.5C47.0501 147.62 46.9201 147.77 46.8101 147.96C46.7001 148.15 46.6301 148.36 46.5801 148.59C46.5301 148.82 46.5101 149.05 46.5101 149.28H44.8601C44.8401 148.79 44.9001 148.34 45.0301 147.93C45.1601 147.51 45.3501 147.15 45.6101 146.84C45.8701 146.53 46.2001 146.28 46.5901 146.11C46.9801 145.94 47.4401 145.85 47.9501 145.85C48.3401 145.85 48.7101 145.91 49.0601 146.03C49.4101 146.15 49.7201 146.33 49.9901 146.55C50.2601 146.78 50.4701 147.06 50.6301 147.39C50.7901 147.72 50.8701 148.1 50.8701 148.51C50.8701 148.92 50.8001 149.31 50.6601 149.62C50.5201 149.93 50.3401 150.2 50.1101 150.44C49.8801 150.68 49.6301 150.9 49.3401 151.09C49.0501 151.28 48.7601 151.48 48.4701 151.67C48.1801 151.86 47.8901 152.07 47.6201 152.28C47.3401 152.5 47.1001 152.75 46.8901 153.05H50.9101V154.53ZM62.2801 152.37C62.1101 152.94 61.8901 153.4 61.6001 153.74C61.3101 154.08 60.9801 154.32 60.6001 154.47C60.2201 154.61 59.8201 154.69 59.3901 154.69C58.9601 154.69 58.5701 154.62 58.1901 154.47C57.8101 154.32 57.4801 154.08 57.2001 153.74C56.9201 153.4 56.6901 152.94 56.5201 152.37C56.3501 151.8 56.2701 151.09 56.2701 150.24C56.2701 149.39 56.3501 148.72 56.5201 148.15C56.6901 147.59 56.9101 147.13 57.2001 146.79C57.4801 146.45 57.8101 146.21 58.1901 146.06C58.5701 145.91 58.9701 145.84 59.3901 145.84C59.8101 145.84 60.2201 145.91 60.6001 146.06C60.9801 146.21 61.3101 146.45 61.6001 146.79C61.8901 147.13 62.1101 147.58 62.2801 148.15C62.4501 148.71 62.5301 149.41 62.5301 150.24C62.5301 151.07 62.4501 151.8 62.2801 152.37Z" fill="#092442"/>
<path d="M329.29 149.89L341.02 138.61H293.54V161.25H341.11L329.3 149.89H329.29ZM309.31 154.53H303.06C303.06 154.03 303.13 153.61 303.27 153.24C303.41 152.88 303.6 152.55 303.85 152.26C304.09 151.97 304.38 151.71 304.71 151.46C305.04 151.21 305.39 150.97 305.75 150.72C305.94 150.59 306.13 150.46 306.35 150.32C306.56 150.19 306.75 150.04 306.93 149.88C307.1 149.72 307.25 149.54 307.37 149.33C307.49 149.13 307.55 148.9 307.55 148.64C307.55 148.23 307.43 147.9 307.19 147.67C306.95 147.44 306.64 147.32 306.27 147.32C306.02 147.32 305.81 147.38 305.63 147.5C305.45 147.62 305.32 147.77 305.21 147.96C305.1 148.15 305.03 148.36 304.98 148.59C304.93 148.82 304.91 149.05 304.91 149.28H303.26C303.24 148.79 303.3 148.34 303.43 147.93C303.56 147.51 303.75 147.15 304.01 146.84C304.27 146.53 304.6 146.28 304.99 146.11C305.38 145.94 305.84 145.85 306.35 145.85C306.74 145.85 307.11 145.91 307.46 146.03C307.81 146.15 308.12 146.33 308.39 146.55C308.66 146.78 308.87 147.06 309.03 147.39C309.19 147.72 309.27 148.1 309.27 148.51C309.27 148.92 309.2 149.31 309.06 149.62C308.92 149.93 308.74 150.2 308.51 150.44C308.28 150.68 308.03 150.9 307.74 151.09C307.45 151.28 307.16 151.48 306.87 151.67C306.58 151.86 306.29 152.07 306.02 152.28C305.74 152.5 305.5 152.75 305.29 153.05H309.31V154.53ZM320.93 154.53H314.68C314.68 154.03 314.75 153.61 314.89 153.24C315.03 152.88 315.22 152.55 315.47 152.26C315.71 151.97 316 151.71 316.33 151.46C316.66 151.21 317.01 150.97 317.37 150.72C317.56 150.59 317.75 150.46 317.97 150.32C318.18 150.19 318.37 150.04 318.55 149.88C318.72 149.72 318.87 149.54 318.99 149.33C319.11 149.13 319.17 148.9 319.17 148.64C319.17 148.23 319.05 147.9 318.81 147.67C318.57 147.44 318.26 147.32 317.89 147.32C317.64 147.32 317.43 147.38 317.25 147.5C317.07 147.62 316.94 147.77 316.83 147.96C316.72 148.15 316.65 148.36 316.6 148.59C316.55 148.82 316.53 149.05 316.53 149.28H314.88C314.86 148.79 314.92 148.34 315.05 147.93C315.18 147.51 315.37 147.15 315.63 146.84C315.89 146.53 316.22 146.28 316.61 146.11C317 145.94 317.46 145.85 317.97 145.85C318.36 145.85 318.73 145.91 319.08 146.03C319.43 146.15 319.74 146.33 320.01 146.55C320.28 146.78 320.49 147.06 320.65 147.39C320.81 147.72 320.89 148.1 320.89 148.51C320.89 148.92 320.82 149.31 320.68 149.62C320.54 149.93 320.36 150.2 320.13 150.44C319.9 150.68 319.65 150.9 319.36 151.09C319.07 151.28 318.78 151.48 318.49 151.67C318.2 151.86 317.91 152.07 317.64 152.28C317.36 152.5 317.12 152.75 316.91 153.05H320.93V154.53Z" fill="#092442"/>
<path d="M183 147L97.7798 99.5699L99.1498 197.02L182.73 244.73L267.5 197.02V99.5699L183 147Z" stroke="#092442" stroke-width="2" stroke-miterlimit="10"/>
</svg>
